<svg viewBox="0 0 192 262" xmlns="http://www.w3.org/2000/svg">
  <ellipse style="fill: rgb(255, 255, 255); stroke: rgb(0, 0, 0);" cx="95.891" cy="98.796" rx="79.701" ry="82.192"></ellipse>
  <g transform="matrix(1, 0, 0, 1, -34, 1)">
    <path fill="#FF5b00" d="m129.879,0c-52.317,0 -94.879,42.563 -94.879,94.882c0,31.605 29.071,81.486 41.569,101.465c10.282,16.436 21.32,32.062 31.079,44c15.871,19.414 20.328,19.414 22.232,19.414c1.827,0 6.105,0 21.921,-19.42c9.784,-12.014 20.831,-27.637 31.106,-43.988c12.584,-20.027 41.854,-70.006 41.854,-101.471c0,-52.319 -42.563,-94.882 -94.882,-94.882zm0.001,171.525c-41.389,0 -75.062,-33.673 -75.062,-75.062c0,-41.389 33.673,-75.062 75.062,-75.062c41.389,0 75.062,33.673 75.062,75.062c0,41.389 -33.673,75.062 -75.062,75.062z"></path>
    <g transform="matrix(1.636227, 0, 0, 1.531409, 111.794502, 69.791832)" style="">
      <path d="M 22.385 -20.352 L -0.543 -20.352 C -5.302 -20.352 -9.142 -15.927 -9.142 -10.445 L -9.142 42.389 C -9.142 47.87 -5.302 52.295 -0.543 52.295 L 22.385 52.295 C 27.143 52.295 30.984 47.87 30.984 42.389 L 30.984 -10.445 C 30.984 -15.927 27.143 -20.352 22.385 -20.352 M 16.654 45.691 L 5.19 45.691 L 5.19 42.389 L 16.654 42.389 L 16.654 45.691 Z M 25.968 35.785 L -4.127 35.785 L -4.127 -10.445 L 25.968 -10.445 L 25.968 35.785 Z" style=""></path>
    </g>
  </g>
</svg>