<svg width="259.761" height="259.761" xmlns="http://www.w3.org/2000/svg">

 <g>
  <title>background</title>
  <rect fill="none" id="canvas_background" height="402" width="582" y="-1" x="-1"/>
 </g>
 <g>
  <title>Layer 1</title>
  <ellipse ry="82" rx="78" id="svg_5" cy="97.325806" cx="130.380493" stroke-width="1.5" stroke="#000" fill="#fff"/>
  <g id="svg_1">
   <g id="svg_2">
    <path id="svg_3" fill="#FF5b00" class="active-path" d="m129.879,0c-52.317,0 -94.879,42.563 -94.879,94.882c0,31.605 29.071,81.486 41.569,101.465c10.282,16.436 21.32,32.062 31.079,44c15.871,19.414 20.328,19.414 22.232,19.414c1.827,0 6.105,0 21.921,-19.42c9.784,-12.014 20.831,-27.637 31.106,-43.988c12.584,-20.027 41.854,-70.006 41.854,-101.471c0,-52.319 -42.563,-94.882 -94.882,-94.882zm0.001,171.525c-41.389,0 -75.062,-33.673 -75.062,-75.062c0,-41.389 33.673,-75.062 75.062,-75.062c41.389,0 75.062,33.673 75.062,75.062c0,41.389 -33.673,75.062 -75.062,75.062z"/>
    <path id="svg_4" fill="#FF5b00" class="active-path" d="m184.678,67.66c-0.52,0 -1.054,0.075 -1.586,0.222l-6.027,1.659l-6.257,-15.244c-1.773,-4.319 -7.014,-7.834 -11.683,-7.834l-58.573,0c-4.669,0 -9.91,3.514 -11.683,7.833l-6.25,15.225l-5.951,-1.639c-0.532,-0.146 -1.066,-0.222 -1.586,-0.222c-2.849,0 -4.916,2.176 -4.916,5.174l0,3.555c0,3.499 2.848,6.347 6.347,6.347l0.682,0l-1.01,2.459c-1.647,4.014 -2.988,10.807 -2.988,15.145l0,30.288c0,3.499 2.848,6.347 6.347,6.347l8.291,0c3.499,0 6.347,-2.848 6.347,-6.347l0,-7.563l71.316,0l0,7.563c0,3.499 2.848,6.347 6.347,6.347l8.288,0c3.499,0 6.347,-2.848 6.347,-6.347l0,-30.288c0,-4.338 -1.341,-11.131 -2.988,-15.145l-1.01,-2.459l0.767,0c3.499,0 6.347,-2.848 6.347,-6.347l0,-3.555c-0.002,-2.998 -2.069,-5.174 -4.918,-5.174zm-97.508,11.628l9.467,-23.062c1.06,-2.584 4.213,-4.697 7.006,-4.697l52.392,0c2.792,0 5.944,2.114 7.005,4.697l9.467,23.062c1.061,2.584 -0.357,4.697 -3.149,4.697l-79.038,0c-2.792,0 -4.21,-2.113 -3.15,-4.697zm21.135,29.168c0,1.396 -1.143,2.539 -2.539,2.539l-17.984,0c-1.397,0 -2.539,-1.143 -2.539,-2.539l0,-8.631c0,-1.396 1.143,-2.539 2.539,-2.539l17.984,0c1.396,0 2.539,1.143 2.539,2.539l0,8.631zm65.958,0c0,1.396 -1.143,2.539 -2.539,2.539l-17.982,0c-1.396,0 -2.539,-1.143 -2.539,-2.539l0,-8.631c0,-1.396 1.143,-2.539 2.539,-2.539l17.982,0c1.396,0 2.539,1.143 2.539,2.539l0,8.631z"/>
   </g>
  </g>
 </g>
</svg>